<?xml version='1.0' encoding='utf-8'?>
<svg xmlns="http://www.w3.org/2000/svg" width="100%" height="100%" viewBox="0 0 6514 6175" version="1.1" style="fill-rule:evenodd;clip-rule:evenodd;stroke-linejoin:round;stroke-miterlimit:2;"> <g transform="matrix(1,0,0,1,-19562.5,-39411.1)"> <g transform="matrix(0.928991,0,0,1,-6640.33,19369.8)"> <rect x="28205.7" y="20041.3" width="7011.78" height="6174.59" style="fill:url(#_Linear1);"/> </g> <g transform="matrix(4.58332,0,0,4.58332,-107297,-156365)"> <g transform="matrix(4.16667,0,0,4.16667,28924.8,43681.9)"> <path d="M0,-2.636L-8.883,-6.102C-7.444,-10.82 -6.539,-15.463 -6.048,-19.963L3.24,-17.511C2.634,-12.677 1.59,-7.696 0,-2.636M-2.849,5.116C-4.574,9.167 -6.62,13.054 -8.947,16.781L-17.187,12.023C-15.046,8.629 -13.177,5.082 -11.603,1.386C-11.445,1.016 -11.306,0.648 -11.155,0.279L-2.292,3.737C-2.478,4.197 -2.652,4.655 -2.849,5.116M-24.446,35.31L-30.857,28.28C-27.219,24.963 -23.971,21.384 -21.08,17.593L-12.778,22.386C-16.19,26.995 -20.071,31.321 -24.446,35.31M-127.447,25.869C-127.447,36.753 -136.271,45.577 -147.155,45.577C-158.04,45.577 -166.863,36.753 -166.863,25.869C-166.863,14.984 -158.04,6.161 -147.155,6.161C-136.271,6.161 -127.447,14.984 -127.447,25.869M-147.155,-8.797C-158.04,-8.797 -166.863,-17.62 -166.863,-28.505C-166.863,-39.389 -158.04,-48.213 -147.155,-48.213C-136.271,-48.213 -127.447,-39.389 -127.447,-28.505C-127.447,-17.62 -136.271,-8.797 -147.155,-8.797M-111.42,-1.528C-111.42,2.487 -114.675,5.742 -118.689,5.742C-122.704,5.742 -125.958,2.487 -125.958,-1.528C-125.958,-5.542 -122.704,-8.797 -118.689,-8.797C-114.675,-8.797 -111.42,-5.542 -111.42,-1.528M-109.931,-28.505C-109.931,-39.389 -101.107,-48.213 -90.223,-48.213C-79.339,-48.213 -70.515,-39.389 -70.515,-28.505C-70.515,-17.62 -79.339,-8.797 -90.223,-8.797C-101.107,-8.797 -109.931,-17.62 -109.931,-28.505M-90.223,6.161C-79.339,6.161 -70.515,14.984 -70.515,25.869C-70.515,36.753 -79.339,45.577 -90.223,45.577C-101.107,45.577 -109.931,36.753 -109.931,25.869C-109.931,14.984 -101.107,6.161 -90.223,6.161M3.906,-29.712C3.927,-27.954 3.915,-26.175 3.83,-24.358L-5.594,-26.846C-5.337,-38.464 -7.592,-48.749 -9.99,-56.277C-14.449,-62.198 -18.852,-66.812 -21.76,-69.68C-16.559,-59.006 -6.582,-34.354 -13.903,-6.831C-20.311,17.257 -38.45,37.81 -63.491,50.708C-50.667,37.109 -42.781,18.804 -42.781,-1.319C-42.781,-43.174 -76.833,-77.226 -118.689,-77.226C-160.545,-77.226 -194.597,-43.174 -194.597,-1.319C-194.597,40.538 -160.545,74.59 -118.689,74.59C-103.261,74.59 -88.901,69.951 -76.908,62.012C-29.093,51.931 2.881,21.758 5.999,-8.926C6.738,-16.199 5.816,-23.189 3.906,-29.712" style="fill:rgb(45,44,44);fill-rule:nonzero;"/> </g> <g transform="matrix(4.16667,0,0,4.16667,28780.1,43158.1)"> <path d="M0,-1.783L6.253,-11.568L3.777,-13.15L-2.765,-2.911C-5.99,-4.208 -9.164,-5.422 -12.133,-6.484C-30.145,-12.93 -51.549,-17.78 -52.648,-14.707C-53.012,-13.693 -51.109,-11.941 -47.764,-9.82C-39.777,-8.838 -26.193,-5.239 -14.124,-0.92C-11.539,0.005 -8.797,1.048 -6.003,2.157L-6.574,3.05L-4.099,4.632L-3.231,3.274C6.178,7.118 15.814,11.591 21.929,15.121C26.723,15.913 29.949,15.997 30.312,14.983C31.18,12.561 15.501,4.626 0,-1.783" style="fill:rgb(234,84,56);fill-rule:nonzero;"/> </g> <g transform="matrix(-0.0723172,-4.16604,-4.16604,0.0723172,28855.7,43056.3)"> <rect x="-11.106" y="-8.31" width="2.937" height="19.225" style="fill:rgb(234,84,56);"/> </g> <g transform="matrix(0.410804,-4.14637,-4.14637,-0.410804,28807.2,43095)"> <path d="M-1.971,-0.665C-1.127,-0.562 -0.284,-0.462 0.559,-0.359C-0.284,0.444 -1.128,1.249 -1.971,2.053C-2.337,1.333 -2.703,0.613 -3.068,-0.107C-2.702,-0.293 -2.336,-0.479 -1.971,-0.665" style="fill:rgb(234,84,56);fill-rule:nonzero;"/> </g> <g transform="matrix(4.16667,0,0,4.16667,28726.6,43103.6)"> <path d="M0,13.131L-6.367,-1.277C-6.854,-2.379 -8.144,-2.878 -9.245,-2.391L-23.653,3.976C-24.756,4.464 -25.255,5.752 -24.768,6.855C-16.883,9.906 -8.998,12.958 -1.114,16.009C-0.012,15.522 0.487,14.234 0,13.131" style="fill:rgb(181,179,178);fill-rule:nonzero;"/> </g> <g transform="matrix(4.16667,0,0,4.16667,28825,43147.2)"> <path d="M0,11.503L-5.578,-1.119C-6.005,-2.084 -7.134,-2.521 -8.1,-2.095L-20.721,3.483C-21.687,3.91 -22.124,5.039 -21.697,6.005C-14.79,8.678 -7.883,11.351 -0.976,14.024C-0.011,13.598 0.427,12.469 0,11.503" style="fill:rgb(181,179,178);fill-rule:nonzero;"/> </g> <g transform="matrix(4.16667,0,0,4.16667,28750.1,43129.9)"> <path d="M0,10.196L-4.943,-0.992C-5.322,-1.847 -6.322,-2.235 -7.179,-1.857L-18.366,3.088C-19.222,3.466 -19.609,4.467 -19.23,5.322C-13.109,7.692 -6.986,10.061 -0.864,12.431C-0.009,12.052 0.379,11.052 0,10.196" style="fill:rgb(116,114,113);fill-rule:nonzero;"/> </g> <g transform="matrix(4.16667,0,0,4.16667,28709.4,43478.5)"> <path d="M0,-69.89C-14.327,-75.017 -29.233,-82.265 -35.592,-87.288L-49.434,-29.42C-54.706,-50.551 -59.979,-71.682 -65.251,-92.812C-67.824,-88.904 -70.423,-85.023 -73.043,-81.166C-67.776,-63.361 -62.509,-45.556 -57.242,-27.75C-54.569,-27.407 -51.944,-26.916 -49.365,-26.303C-23.981,-20.257 -3.55,-1.482 4.805,22.922L44.556,-58.836C44.566,-58.868 44.562,-58.905 44.568,-58.938C35.202,-59.363 14.904,-64.556 0,-69.89" style="fill:rgb(234,84,56);fill-rule:nonzero;"/> </g> <g transform="matrix(4.16667,0,0,4.16667,28416.2,43002.8)"> <path d="M0,85.86C-4.09,72.861 -8.181,59.863 -12.271,46.865C-13.492,48.595 -14.713,50.325 -15.944,52.047L-25.238,44.598C-22.386,40.599 -19.561,36.578 -16.776,32.549C-19.917,22.569 -23.057,12.589 -26.198,2.609L-44.535,-2.003C-34.456,27.953 -24.376,57.908 -14.297,87.863C-9.679,86.762 -4.902,86.074 0,85.86" style="fill:rgb(234,84,56);fill-rule:nonzero;"/> </g> <g transform="matrix(4.16667,0,0,4.16667,28310.3,43076.9)"> <path d="M0,73.651C-10.026,45.373 -20.051,17.094 -30.077,-11.184L-37.121,-1.17C-37.952,0.011 -39.424,0.558 -40.825,0.206L-52.992,-2.854L-18.889,84.835C-13.209,80.246 -6.857,76.463 0,73.651" style="fill:rgb(234,84,56);fill-rule:nonzero;"/> </g> <g transform="matrix(3.53687,-2.20264,-2.20264,-3.53687,28268.7,43385.5)"> <path d="M-25.427,-6.953C-19.63,26.869 -13.834,60.692 -8.038,94.515L-25.427,87.146C-30.475,53.683 -35.525,20.218 -40.574,-13.246C-35.749,-10.601 -30.67,-8.493 -25.427,-6.953" style="fill:rgb(234,84,56);fill-rule:nonzero;"/> </g> <g transform="matrix(4.16667,0,0,4.16667,28127.4,43163.3)"> <path d="M0,101.189C-16.455,64.806 -32.91,28.422 -49.365,-7.962L-57.677,-10.049C-60.577,-10.778 -62.99,-7.759 -61.64,-5.09C-41.897,33.929 -22.156,72.948 -2.414,111.967C-1.869,108.281 -1.055,104.683 0,101.189" style="fill:rgb(234,84,56);fill-rule:nonzero;"/> </g> <g transform="matrix(-0.967604,-4.05276,-4.05276,0.967604,28555.9,43178.6)"> <path d="M-8.076,18.706L18.682,18.706C15.844,12.832 13.006,6.959 10.167,1.084C3.186,4.546 -3.795,8.008 -10.777,11.47C-9.876,13.882 -8.976,16.293 -8.076,18.706" style="fill:rgb(45,44,44);fill-rule:nonzero;"/> </g> <g transform="matrix(4.16667,0,0,4.16667,28849.4,43642.5)"> <path d="M0,-34.813C-1.446,-43.609 -4.05,-50.729 -6.284,-55.763C-9.688,-48.605 -13.094,-41.447 -16.498,-34.29C-12.98,-27.676 -8.969,-18.145 -7.594,-6.269C-5.732,9.805 -9.828,20.431 -8.956,20.633C-7.585,20.95 4.947,-4.736 0,-34.813" style="fill:rgb(45,44,44);fill-rule:nonzero;"/> </g> <g transform="matrix(4.16667,0,0,4.16667,27914.2,43478.8)"> <path d="M0,-52.976C-1.433,-45.496 -2.622,-36.844 -3.121,-27.208C-3.647,-17.057 -3.3,-7.899 -2.568,0C-2.059,-6.205 -0.632,-14.394 3.164,-23.28C4.799,-27.106 6.613,-30.453 8.406,-33.329C5.604,-39.877 2.802,-46.427 0,-52.976" style="fill:rgb(45,44,44);fill-rule:nonzero;"/> </g> <g transform="matrix(4.16667,0,0,4.16667,28414.1,42980.6)"> <path d="M0,13.547C0.567,12.671 1.114,11.781 1.678,10.902L-3.161,-8.489C-3.886,-11.396 -7.696,-12.097 -9.409,-9.639C-11.036,-7.302 -12.664,-4.964 -14.292,-2.627C-11.716,6.081 -9.14,14.788 -6.564,23.496C-5.493,21.885 -4.406,20.29 -3.344,18.67L5.356,25.644C4.544,22.392 3.734,19.141 2.922,15.89L0,13.547Z" style="fill:rgb(234,84,56);fill-rule:nonzero;"/> </g> <g transform="matrix(4.16667,0,0,4.16667,28316.2,43013.6)"> <path d="M0,7.016C-0.736,4.677 -1.472,2.339 -2.208,0C-1.472,2.339 -0.736,4.677 0,7.016" style="fill:rgb(250,234,37);fill-rule:nonzero;"/> </g> <g transform="matrix(4.16667,0,0,4.16667,27870.6,42847.3)"> <path d="M0,70.755C-1.35,68.087 1.062,65.068 3.963,65.796L12.274,67.883C16.076,68.838 19.877,69.793 23.679,70.748C25.079,71.1 26.551,70.552 27.382,69.371L27.898,68.638L38.763,53.192L40.017,51.409C40.848,50.228 42.321,49.681 43.721,50.033L52.543,52.251L64.709,55.311C66.11,55.663 67.583,55.116 68.414,53.935L75.458,43.921L80.865,36.234C81.696,35.052 83.169,34.505 84.57,34.857L86.406,35.319L104.743,39.93L105.855,40.21C107.262,40.564 108.74,40.01 109.569,38.82C111.764,35.669 113.959,32.518 116.154,29.367C117.782,27.03 119.41,24.692 121.037,22.356C122.75,19.898 126.56,20.598 127.285,23.505L128.658,29.005C134.954,24.603 137.421,16.211 134.115,8.972C131.508,3.264 126.006,-0.197 120.144,-0.491C119.97,-2.217 119.53,-3.945 118.769,-5.611C115.043,-13.767 105.411,-17.36 97.254,-13.634C89.907,-10.279 86.284,-2.132 88.356,5.414C87.939,5.874 87.56,6.36 87.201,6.86C82.653,3.73 76.632,2.982 71.245,5.443C65.184,8.211 61.651,14.24 61.76,20.502C61.338,20.654 60.917,20.812 60.501,21.002C59.151,21.619 57.94,22.41 56.853,23.317C52.191,18.832 45.095,17.387 38.854,20.237C34.178,22.373 31.013,26.452 29.855,31.079C26.218,29.991 22.191,30.151 18.466,31.852C16.718,32.651 15.194,33.733 13.893,35.002C10.226,33.876 6.155,34.021 2.392,35.739C-5.765,39.464 -9.356,49.097 -5.631,57.254C-5.389,57.783 -5.12,58.292 -4.83,58.783C-10.11,63.383 -11.989,71.067 -8.931,77.762C-5.851,84.505 1.267,88.115 8.25,87.062C5.5,81.626 2.75,76.191 0,70.755" style="fill:rgb(250,234,37);fill-rule:nonzero;"/> </g> <g transform="matrix(4.16667,0,0,4.16667,28453,43491.3)"> <path d="M0,-101.556L-9.324,-109.03C-6.315,-113.681 -3.347,-118.364 -0.417,-123.068L8.926,-115.579C5.988,-110.88 3.014,-106.203 0,-101.556M-11.824,-83.758L-21.134,-91.22C-18.284,-95.418 -15.461,-99.647 -12.667,-103.907L-3.344,-96.433C-6.142,-92.177 -8.971,-87.953 -11.824,-83.758M-24.773,-65.202L-34.067,-72.652C-30.865,-77.139 -27.69,-81.653 -24.578,-86.177L-15.276,-78.722C-18.395,-74.197 -21.57,-69.686 -24.773,-65.202M12.606,-120.462C9.34,-123.071 6.073,-125.679 2.806,-128.287L9.816,-139.869C9.448,-142.424 9.081,-144.979 8.714,-147.534C-61.132,-29.593 -105.737,25.485 -125.104,17.709C-135.403,13.573 -138.565,-8.34 -134.588,-48.033C-150.817,1.371 -153.787,29.239 -143.499,35.574C-126.602,45.978 -73.944,-1.703 14.476,-107.467C13.853,-111.799 13.229,-116.131 12.606,-120.462" style="fill:rgb(45,44,44);fill-rule:nonzero;"/> </g> <g transform="matrix(2.70532,-3.16897,-3.16897,-2.70532,28759,43424.8)"> <path d="M-24.746,-10.38C-25.954,-9.79 -15.645,4.016 -16.581,24.222C-17.38,41.475 -25.878,52.56 -24.746,53.146C-23.483,53.801 -10.966,40.966 -10.064,23.846C-9.039,4.446 -23.424,-11.025 -24.746,-10.38" style="fill:rgb(205,70,57);fill-rule:nonzero;"/> </g> <g transform="matrix(4.16667,0,0,4.16667,28466.4,43589.2)"> <path d="M0,-49.458C-2.408,-49.724 -36.09,-52.907 -59.708,-29.032C-73.348,-15.242 -78.197,2.079 -76.991,2.786C-75.86,3.449 -70.272,-11.014 -54.994,-23.336C-35.437,-39.109 -12.511,-41.286 -6.285,-41.798C12.582,-43.352 26.148,-38.666 26.515,-40.227C26.869,-41.74 14.529,-47.852 0,-49.458" style="fill:rgb(68,67,65);fill-rule:nonzero;"/> </g> <g transform="matrix(-4.05532,-0.956834,-0.956834,4.05532,28460.7,43602.2)"> <path d="M-11.048,-29.255C-10.306,-29.8 -2.194,-24.211 -1.611,-16.053C-0.952,-6.832 -10.294,0.381 -11.048,-0.122C-11.712,-0.566 -5.422,-6.797 -5.896,-15.854C-6.314,-23.829 -11.698,-28.777 -11.048,-29.255" style="fill:rgb(181,179,178);fill-rule:nonzero;"/> </g> <g transform="matrix(-0.956698,4.05535,4.05535,0.956698,28345.6,43782.7)"> <path d="M10.164,-22.496C10.905,-23.04 19.017,-17.451 19.601,-9.294C20.26,-0.074 10.919,7.139 10.164,6.636C9.5,6.193 15.789,-0.037 15.315,-9.095C14.898,-17.07 9.512,-22.018 10.164,-22.496" style="fill:rgb(181,179,178);fill-rule:nonzero;"/> </g> <g transform="matrix(3.58485,2.12367,2.12367,-3.58485,28283.6,43605.6)"> <path d="M7.566,-3.351C8.308,-3.896 16.42,1.694 17.003,9.851C17.661,19.071 8.32,26.283 7.566,25.781C6.902,25.337 13.191,19.108 12.718,10.05C12.301,2.076 6.915,-2.873 7.566,-3.351" style="fill:rgb(181,179,178);fill-rule:nonzero;"/> </g> <g transform="matrix(2.47149,-3.35453,-3.35453,-2.47149,28632.3,43747.3)"> <path d="M-13.065,-4.668C-12.324,-5.212 -4.212,0.377 -3.629,8.534C-2.969,17.754 -12.31,24.967 -13.065,24.465C-13.73,24.022 -7.44,17.792 -7.913,8.734C-8.331,0.76 -13.717,-4.19 -13.065,-4.668" style="fill:rgb(181,179,178);fill-rule:nonzero;"/> </g> <g transform="matrix(-3.65787,-1.99528,-1.99528,3.65787,28728,43202.8)"> <path d="M5.029,4.617C-18.228,1.32 -32.115,-5.964 -32.507,-4.991C-32.94,-3.913 -16.706,6.856 5.029,9.539C23.501,11.82 39.333,7.444 39.254,6.358C39.18,5.353 25.472,7.516 5.029,4.617" style="fill:rgb(205,70,57);fill-rule:nonzero;"/> </g> <g transform="matrix(4.16667,0,0,4.16667,28183.8,43232.8)"> <path d="M0,-40.329L13.879,0C10.875,-2.797 6.015,-8.068 2.75,-16.105C-1.547,-26.682 -0.665,-36.095 0,-40.329" style="fill:rgb(205,70,57);fill-rule:nonzero;"/> </g> <g transform="matrix(4.16667,0,0,4.16667,28387.5,43342.9)"> <path d="M0,-28.813C2.743,-19.209 5.487,-9.605 8.23,0C8.854,-3.187 9.796,-10.372 6.631,-18.414C4.714,-23.285 1.979,-26.721 0,-28.813" style="fill:rgb(181,179,178);fill-rule:nonzero;"/> </g> <g transform="matrix(4.16667,0,0,4.16667,28075.7,43161.9)"> <path d="M0,68.218L-30.116,0C-24.119,7.024 -16.467,17.501 -10.213,31.556C-3.811,45.946 -1.164,58.938 0,68.218" style="fill:rgb(181,179,178);fill-rule:nonzero;"/> </g> <g transform="matrix(-3.93568,1.36804,1.36804,3.93568,27908.8,43568.8)"> <path d="M-0.816,-25.064C-1.59,-24.767 5.029,-13.667 0.756,-3.744C-0.011,-1.962 -1.39,0.39 -0.816,0.858C-0.136,1.411 3.188,-0.746 4.801,-3.262C9.837,-11.119 0.075,-25.405 -0.816,-25.064" style="fill:rgb(68,67,65);fill-rule:nonzero;"/> </g> </g> </g> <defs> <linearGradient id="_Linear1" x1="0" y1="0" x2="1" y2="0" gradientUnits="userSpaceOnUse" gradientTransform="matrix(7011.78,6174.59,-6646.55,6513.89,28205.7,20041.3)"><stop offset="0" style="stop-color:rgb(254,255,223);stop-opacity:1"/><stop offset="0.55" style="stop-color:rgb(251,255,208);stop-opacity:1"/><stop offset="1" style="stop-color:rgb(240,255,72);stop-opacity:1"/></linearGradient> </defs> </svg>